# xmcd CD database file
# Copyright (C) 1996 Ti Kan
#
# Track frame offsets:
#  183
#  10335
#  23813
#  35490
#  46048
#  58425
#  70148
#  82895
#  95170
#  106895
#  118438
#  129883
#  140955
#  151278
#
# Disc length: 2227 seconds
#
# Revision: 2
# Processed by: cddbd v1.4b41PL1 Copyright (c) Steve Scherf et al.
# Submitted via: CDWizzard Release:4.12
#
DISCID=c108b10e
DTITLE=John Lee Hooker - This Is Hip
DYEAR=1900
DGENRE=
TTITLE0=Dimples
TTITLE1=Every Night
TTITLE2=Little Wheel
TTITLE3=Maudie
TTITLE4=I'm In The Mood
TTITLE5=Boogie Chillun
TTITLE6=Hobo Blues
TTITLE7=Crawlin' Kingsnake
TTITLE8=Solid Sender
TTITLE9=Will the Circle Be Unbroken
TTITLE10=Boom Boom
TTITLE11=This Is Hip
TTITLE12=Big Legs, Tight Skirt
TTITLE13=It Serves Me Right To Suffer
EXTD=
EXTT0=
EXTT1=
EXTT2=
EXTT3=
EXTT4=
EXTT5=
EXTT6=
EXTT7=
EXTT8=
EXTT9=
EXTT10=
EXTT11=
EXTT12=
EXTT13=
PLAYORDER=
